<svg width="30" height="31" viewBox="0 0 30 31" fill="none" xmlns="http://www.w3.org/2000/svg">
<path d="M3.57143 0C1.60714 0 0 1.60714 0 3.57143V26.4286C0 28.3929 1.60714 30 3.57143 30H15.5943C15.6724 30.014 15.7506 30.014 15.8287 30H19.88C19.9581 30.014 20.0363 30.014 20.1144 30H26.4286C28.3929 30 30 28.3929 30 26.4286V3.57143C30 1.60714 28.3929 0 26.4286 0H3.57143ZM3.57143 1.42857H26.4286C27.62 1.42857 28.5714 2.38002 28.5714 3.57143V26.4286C28.5714 27.62 27.62 28.5714 26.4286 28.5714H20.7143V18.5714H23.4431L24.4448 13.5714H20.7143V12.1429C20.7143 11.7439 20.7533 11.7132 20.8845 11.6267C21.0184 11.5402 21.4314 11.4286 22.1429 11.4286H24.2857V7.40792L23.8783 7.21261C23.8783 7.21261 22.2377 6.42857 20 6.42857C18.3929 6.42857 17.0731 7.06752 16.2277 8.125C15.3823 9.18248 15 10.5943 15 12.1429V13.5714H12.8571V18.5714H15V28.5714H3.57143C2.38002 28.5714 1.42857 27.62 1.42857 26.4286V3.57143C1.42857 2.38002 2.38002 1.42857 3.57143 1.42857ZM20 7.85714C21.4844 7.85714 22.4191 8.18359 22.8571 8.35659V10H22.1429C21.3198 10 20.6613 10.067 20.1088 10.4269C19.5536 10.7896 19.2857 11.4732 19.2857 12.1429V15H22.6981L22.2712 17.1429H19.2857V28.5714H16.4286V17.1429H14.2857V15H16.4286V12.1429C16.4286 10.8343 16.7606 9.74609 17.3438 9.01786C17.9269 8.28962 18.75 7.85714 20 7.85714Z" fill="white"/>
</svg>
