<svg width="41" height="50" viewBox="0 0 41 50" fill="none" xmlns="http://www.w3.org/2000/svg">
<path fill-rule="evenodd" clip-rule="evenodd" d="M4.94796 9.05199C5.9578 8.50701 9.50158 7.54997 22.8374 4.19768C31.9899 1.89546 39.6796 0.0239195 39.9461 0.00265191C40.3804 -0.0186156 40.399 0.0717714 40.399 1.40099C40.399 4.46618 39.3492 7.19906 37.4121 9.1344C35.5363 11.0059 34.9368 11.2106 20.5299 14.8102C13.3225 16.6179 6.78113 18.3273 6.01909 18.6091C3.23736 19.6432 1.0658 21.5334 0.30908 23.5937C0.0612823 24.2902 0.0213149 24.0031 0.0213149 20.4035C0 18.2236 0.103914 15.9507 0.226481 15.3658C0.78336 12.7738 2.63785 10.2642 4.94796 9.05199ZM5.97645 23.8994C6.96765 23.4262 11.5852 22.1714 23.6021 19.1408C28.2107 17.9929 32.416 16.9406 35.4345 16.1853C38.2883 15.4711 40.0813 15.0225 40.1512 15.0096C40.5243 14.9697 40.4417 18.0934 40.0287 19.7389C39.6434 21.1135 38.9727 22.3919 38.0602 23.4911C37.1476 24.5903 36.0136 25.4857 34.7316 26.1192C33.9883 26.4648 29.1868 27.7648 22.6722 29.3891C16.7064 30.8698 11.6438 32.2283 11.3774 32.3931C11.0244 32.6509 10.7294 32.9797 10.5114 33.3581C10.1411 33.9563 10.1011 34.4082 10.1011 38.3374V42.6228L10.9244 40.9374C11.9103 38.9223 13.2425 37.4601 14.8412 36.6998C15.7898 36.2479 39.3892 30.1813 40.2152 30.1813C40.6468 30.1813 40.3138 34.1902 39.7809 35.6311C38.9088 38.0614 37.1294 40.0615 34.8142 41.2138C33.8044 41.7189 0.309081 50.1914 0.103915 49.9867C0.0399674 49.9255 0 46.0362 0 41.3281C0 31.8375 0.103915 30.9336 1.27896 28.5676C2.18488 26.7785 4.22588 24.7634 5.97645 23.8994Z" fill="white"/>
</svg>
