<svg width="30" height="30" viewBox="0 0 30 30" fill="none" xmlns="http://www.w3.org/2000/svg">
<path d="M8.86364 0C3.97638 0 0 3.97638 0 8.86364V21.1364C0 26.0236 3.97638 30 8.86364 30H21.1364C26.0236 30 30 26.0236 30 21.1364V8.86364C30 3.97638 26.0236 0 21.1364 0H8.86364ZM8.86364 1.36364H21.1364C25.2859 1.36364 28.6364 4.71413 28.6364 8.86364V21.1364C28.6364 25.2859 25.2859 28.6364 21.1364 28.6364H8.86364C4.71413 28.6364 1.36364 25.2859 1.36364 21.1364V8.86364C1.36364 4.71413 4.71413 1.36364 8.86364 1.36364ZM23.1818 5.45455C22.4281 5.45455 21.8182 6.06445 21.8182 6.81818C21.8182 7.57191 22.4281 8.18182 23.1818 8.18182C23.9355 8.18182 24.5455 7.57191 24.5455 6.81818C24.5455 6.06445 23.9355 5.45455 23.1818 5.45455ZM15 7.5C10.8665 7.5 7.5 10.8665 7.5 15C7.5 19.1335 10.8665 22.5 15 22.5C19.1335 22.5 22.5 19.1335 22.5 15C22.5 10.8665 19.1335 7.5 15 7.5ZM15 8.86364C18.3958 8.86364 21.1364 11.6042 21.1364 15C21.1364 18.3958 18.3958 21.1364 15 21.1364C11.6042 21.1364 8.86364 18.3958 8.86364 15C8.86364 11.6042 11.6042 8.86364 15 8.86364Z" fill="white"/>
</svg>
