<svg width="30" height="30" viewBox="0 0 30 30" fill="none" xmlns="http://www.w3.org/2000/svg">
<path d="M3.5707 0C1.6066 0 0 1.6066 0 3.5707V26.4293C0 28.3934 1.6066 30 3.5707 30H26.4293C28.3934 30 30 28.3934 30 26.4293V3.5707C30 1.6066 28.3934 0 26.4293 0H3.5707ZM3.5707 1.42784H26.4293C27.6217 1.42784 28.5722 2.37829 28.5722 3.5707V26.4293C28.5722 27.6217 27.6217 28.5722 26.4293 28.5722H3.5707C2.37829 28.5722 1.42784 27.6217 1.42784 26.4293V3.5707C1.42784 2.37829 2.37829 1.42784 3.5707 1.42784ZM7.14358 5.00727C6.36099 5.00727 5.65688 5.2427 5.13588 5.68086C4.6127 6.11902 4.29443 6.77518 4.29443 7.47493C4.29443 8.80904 5.44979 9.84886 6.92123 9.95132C6.92341 9.9535 6.92341 9.9535 6.92559 9.9535C6.99535 9.97747 7.06947 9.99055 7.14358 9.99055C8.76544 9.99055 9.99055 8.85482 9.99055 7.47493C9.99055 7.46403 9.99055 7.45095 9.99055 7.43787C9.91644 6.08196 8.70658 5.00727 7.14358 5.00727ZM7.14358 6.41985C8.13763 6.41985 8.53001 6.86455 8.57361 7.49455C8.56489 8.10493 8.18558 8.58015 7.14358 8.58015C6.1539 8.58015 5.70484 8.07223 5.70484 7.47493C5.70484 7.17846 5.81383 6.95175 6.04273 6.75992C6.27162 6.56809 6.64002 6.41985 7.14358 6.41985ZM4.99855 10.7143C4.60616 10.7143 4.28571 11.0347 4.28571 11.4293V25.0015C4.28571 25.3938 4.60616 25.7143 4.99855 25.7143H9.28644C9.68101 25.7143 9.99927 25.3938 9.99927 25.0015V11.4293C9.99927 11.0347 9.68101 10.7143 9.28644 10.7143H4.99855ZM11.4293 10.7143C11.0347 10.7143 10.7143 11.0347 10.7143 11.4293V25.0015C10.7143 25.3938 11.0347 25.7143 11.4293 25.7143H15.715C16.1096 25.7143 16.4278 25.3938 16.4278 25.0015V17.8579C16.4278 17.2649 16.5913 16.6742 16.8747 16.2883C17.1603 15.9025 17.52 15.6714 18.2023 15.6845C18.9064 15.6954 19.2792 15.9374 19.5604 16.3167C19.8438 16.6938 20.0007 17.2628 20.0007 17.8579V25.0015C20.0007 25.3938 20.319 25.7143 20.7136 25.7143H25.0015C25.3938 25.7143 25.7143 25.3938 25.7143 25.0015V17.3303C25.7143 15.2136 25.0887 13.5395 24.014 12.4059C22.9393 11.2723 21.446 10.7143 19.8656 10.7143C18.3658 10.7143 17.2213 11.2178 16.4278 11.7301V11.4293C16.4278 11.0347 16.1096 10.7143 15.715 10.7143H11.4293ZM5.71356 12.1421H8.57143V24.2864H5.71356V12.1421ZM12.1421 12.1421H15V13.2582C15 13.5656 15.1962 13.8381 15.4883 13.934C15.7782 14.0321 16.1009 13.9318 16.284 13.6877C16.284 13.6877 17.4066 12.1421 19.8656 12.1421C21.119 12.1421 22.1937 12.5585 22.9785 13.3869C23.7633 14.2152 24.2864 15.4927 24.2864 17.3303V24.2864H21.4286V17.8579C21.4286 17.023 21.2302 16.1619 20.707 15.4621C20.186 14.7624 19.3097 14.2741 18.2263 14.2545C17.1407 14.2349 16.2491 14.7341 15.7259 15.4425C15.2027 16.151 15 17.0208 15 17.8579V24.2864H12.1421V12.1421Z" fill="white"/>
</svg>
