<svg width="30" height="23" viewBox="0 0 30 23" fill="none" xmlns="http://www.w3.org/2000/svg">
<path d="M14.898 0C10.3027 0 5.98749 0.348047 3.68984 0.834768C2.15898 1.18282 0.834769 2.22696 0.557419 3.82851C0.280069 5.49805 0 8.00508 0 11.1375C0 14.2699 0.27735 16.7062 0.625397 18.4465C0.905465 19.9773 2.22696 21.0922 3.75782 21.4402C6.19686 21.9269 10.3707 22.275 14.966 22.275C19.5613 22.275 23.7352 21.9269 26.1715 21.4402C27.7051 21.0922 29.0266 20.048 29.3039 18.4465C29.584 16.7062 29.932 14.2019 30 11.0695C30 7.9371 29.652 5.43007 29.3039 3.68984C29.0266 2.15898 27.7051 1.04414 26.1715 0.696094C23.7352 0.348047 19.4906 0 14.898 0ZM14.898 1.39219C19.9094 1.39219 23.9445 1.80821 25.8941 2.15626C26.9383 2.43633 27.773 3.13242 27.9117 4.03789C28.3305 6.26484 28.6078 8.63319 28.6078 11.0695C28.5398 14.0605 28.1918 16.4969 27.9117 18.2371C27.7051 19.5586 26.3129 19.9773 25.8941 20.1187C23.3871 20.6055 19.2106 20.9508 15.034 20.9508C10.8574 20.9508 6.61289 20.6734 4.17656 20.1187C3.13242 19.8387 2.29765 19.1426 2.15898 18.2371C1.60156 16.2875 1.39219 13.7125 1.39219 11.1375C1.39219 7.93438 1.67226 5.56875 1.94961 4.10858C2.15898 2.78437 3.61914 2.36563 3.96719 2.22696C6.26484 1.74023 10.5121 1.39219 14.898 1.39219ZM11.1375 5.56875V16.7062L20.8828 11.1375L11.1375 5.56875ZM12.5297 7.9371L18.0984 11.1375L12.5297 14.3379V7.9371Z" fill="white"/>
</svg>
