<svg width="164" height="50" viewBox="0 0 164 50" fill="none" xmlns="http://www.w3.org/2000/svg">
<g clip-path="url(#clip0_79_31)">
<path fill-rule="evenodd" clip-rule="evenodd" d="M4.94796 9.05199C5.9578 8.50701 9.50158 7.54997 22.8374 4.19768C31.9899 1.89546 39.6796 0.0239195 39.9461 0.00265191C40.3804 -0.0186156 40.399 0.0717714 40.399 1.40099C40.399 4.46618 39.3492 7.19906 37.4121 9.1344C35.5363 11.0059 34.9368 11.2106 20.5299 14.8102C13.3225 16.6179 6.78113 18.3273 6.01909 18.6091C3.23736 19.6432 1.0658 21.5334 0.30908 23.5937C0.0612823 24.2902 0.0213149 24.0031 0.0213149 20.4035C0 18.2236 0.103914 15.9507 0.226481 15.3658C0.78336 12.7738 2.63785 10.2642 4.94796 9.05199ZM5.97645 23.8994C6.96765 23.4262 11.5852 22.1714 23.6021 19.1408C28.2107 17.9929 32.416 16.9406 35.4345 16.1853C38.2883 15.4711 40.0813 15.0225 40.1512 15.0096C40.5243 14.9697 40.4417 18.0934 40.0287 19.7389C39.6434 21.1135 38.9727 22.3919 38.0602 23.4911C37.1476 24.5903 36.0136 25.4857 34.7316 26.1192C33.9883 26.4648 29.1868 27.7648 22.6722 29.3891C16.7064 30.8698 11.6438 32.2283 11.3774 32.3931C11.0244 32.6509 10.7294 32.9797 10.5114 33.3581C10.1411 33.9563 10.1011 34.4082 10.1011 38.3374V42.6228L10.9244 40.9374C11.9103 38.9223 13.2425 37.4601 14.8412 36.6998C15.7898 36.2479 39.3892 30.1813 40.2152 30.1813C40.6468 30.1813 40.3138 34.1902 39.7809 35.6311C38.9088 38.0614 37.1294 40.0615 34.8142 41.2138C33.8044 41.7189 0.309081 50.1914 0.103915 49.9867C0.0399674 49.9255 0 46.0362 0 41.3281C0 31.8375 0.103915 30.9336 1.27896 28.5676C2.18488 26.7785 4.22588 24.7634 5.97645 23.8994Z" fill="white"/>
<path d="M109.329 6.22607C107.789 6.82156 106.931 8.12952 106.931 9.87877C106.947 12.6489 109.596 14.321 112.559 13.4384C113.321 13.2125 114.602 12.282 114.602 11.9338C114.602 11.8407 114.403 11.644 114.16 11.4924C113.718 11.2266 113.702 11.2266 113.276 11.628C111.965 12.8775 109.615 12.6914 108.655 11.2798C108.122 10.5035 108.122 9.13441 108.639 8.28105C109.508 6.88271 112.055 6.69928 113.321 7.96204C113.702 8.34219 113.718 8.34219 114.16 8.08433C114.403 7.93279 114.602 7.73341 114.602 7.64302C114.602 7.29211 113.321 6.36431 112.559 6.13569C111.497 5.83056 110.367 5.86215 109.324 6.22607H109.329Z" fill="white"/>
<path d="M118.482 6.07455C117.597 6.34039 116.545 7.15653 116.164 7.91685C114.805 10.5753 116.468 13.4251 119.486 13.6378C121.317 13.7601 122.873 12.9519 123.651 11.4765C124.093 10.6099 124.093 8.96693 123.651 8.09762C122.75 6.39356 120.454 5.49767 118.482 6.07455ZM121.394 7.47555C122.553 8.11357 122.993 9.7113 122.401 11.0193C121.637 12.6941 119.105 13.0583 117.779 11.6759C116.558 10.3972 116.91 8.14548 118.45 7.3825C119.212 7.00234 120.646 7.0502 121.394 7.47555Z" fill="white"/>
<path d="M79.8362 9.78839V13.5102H86.6973V12.298H81.2084V10.3201H85.4716V9.10251H81.2084V7.27616H86.6973V6.05859H79.8362V9.78839Z" fill="white"/>
<path d="M88.0721 9.78839V13.5102H94.7813V12.298H89.4523V6.05859H88.0801L88.0721 9.78839Z" fill="white"/>
<path d="M96.0016 9.78839V13.5102H97.3738V6.05859H96.0016V9.78839Z" fill="white"/>
<path d="M98.4423 6.66738V7.27616H101.64V13.5155H103.012V7.27616H106.209V6.05859H98.4423V6.66738Z" fill="white"/>
<path d="M125.282 9.78839V13.5102H126.657L126.686 10.7401L126.731 7.98597L131.626 13.4996L132.356 13.5155H133.073V6.05859H131.7L131.671 8.81274L131.626 11.5828L126.731 6.07454H126.014L125.282 6.05859V9.78839Z" fill="white"/>
<path d="M54.2064 28.0971H53.4071V22.8972H50.3589V28.0971H49.5595V22.1953H54.2038L54.2064 28.0971Z" fill="white"/>
<path d="M56.3167 22.1953H58.5229C58.9323 22.1872 59.3409 22.2337 59.7379 22.3336C60.0631 22.4197 60.342 22.6284 60.5159 22.9158C60.7095 23.2169 60.8096 23.5683 60.8037 23.926C60.8201 24.1806 60.7772 24.4355 60.6782 24.6707C60.5793 24.906 60.4271 25.1151 60.2335 25.2818C59.7545 25.6208 59.1728 25.7842 58.5868 25.7444H57.1001V28.1051H56.3167V22.1953ZM57.1001 25.0372H58.5948C58.9723 25.0724 59.3501 24.9725 59.6606 24.7554C59.7716 24.6523 59.8581 24.5257 59.9138 24.385C59.9696 24.2443 59.9932 24.0929 59.983 23.9419C59.9866 23.7202 59.9255 23.5022 59.8072 23.3145C59.7057 23.1461 59.5437 23.0226 59.3542 22.9689C59.097 22.9131 58.8339 22.889 58.5708 22.8972H57.1001V25.0372Z" fill="white"/>
<path d="M65.1815 22.0943C65.5605 22.0815 65.938 22.1495 66.2886 22.294C66.6392 22.4384 66.9549 22.6558 67.2145 22.9317C67.7626 23.5362 68.0498 24.3319 68.0138 25.1462C68.0498 25.9606 67.7626 26.7562 67.2145 27.3607C66.6719 27.8953 65.94 28.1951 65.1775 28.1951C64.4149 28.1951 63.683 27.8953 63.1405 27.3607C62.5923 26.7562 62.3051 25.9606 62.3411 25.1462C62.3039 24.3317 62.5913 23.5356 63.1405 22.9317C63.4018 22.6559 63.7189 22.4386 64.0708 22.2942C64.4226 22.1498 64.8012 22.0817 65.1815 22.0943ZM65.1815 27.5282C65.4548 27.5362 65.7266 27.4842 65.9775 27.3757C66.2285 27.2673 66.4525 27.1052 66.6336 26.9008C67.0372 26.4079 67.2398 25.7815 67.2011 25.1462C67.2413 24.5112 67.0396 23.8845 66.6363 23.3916C66.4576 23.1877 66.236 23.0257 65.9873 22.9172C65.7385 22.8088 65.4688 22.7565 65.1974 22.7642C64.9221 22.7561 64.6483 22.808 64.3952 22.9163C64.1421 23.0247 63.9157 23.1869 63.732 23.3916C63.3277 23.8841 63.125 24.5109 63.1644 25.1462C63.1268 25.7813 63.3294 26.4074 63.732 26.9008C63.9128 27.1048 64.1364 27.2668 64.3868 27.3752C64.6373 27.4836 64.9086 27.5358 65.1815 27.5282Z" fill="white"/>
<path d="M74.4672 28.0971H73.7211V23.3544L70.625 28.0971H69.8257V22.1953H70.5691V26.9327L73.6652 22.1953H74.4645L74.4672 28.0971Z" fill="white"/>
<path d="M79.4445 24.8564C79.815 24.9211 80.1529 25.1084 80.4037 25.3881C80.6284 25.6607 80.7458 26.0057 80.7341 26.3585C80.7401 26.613 80.687 26.8655 80.5788 27.0961C80.4706 27.3268 80.3104 27.5292 80.1106 27.6877C79.6376 28.0426 79.0551 28.2212 78.4639 28.1928C77.9139 28.2157 77.3719 28.0548 76.9239 27.7355C76.7326 27.5975 76.5753 27.4178 76.464 27.2101C76.3528 27.0023 76.2904 26.772 76.2817 26.5366H77.0677C77.0693 26.673 77.1026 26.8071 77.165 26.9285C77.2274 27.0498 77.3173 27.155 77.4275 27.2358C77.729 27.449 78.0953 27.5514 78.4639 27.5255C78.8523 27.5504 79.2376 27.4425 79.5564 27.2198C79.6844 27.1196 79.7867 26.9904 79.8548 26.8429C79.9229 26.6955 79.9549 26.534 79.948 26.3718C79.9537 26.2105 79.9177 26.0505 79.8435 25.9071C79.7693 25.7637 79.6594 25.6417 79.5244 25.553C79.1679 25.3353 78.7533 25.2314 78.336 25.2552H77.8804V24.5959H78.4133C79.2526 24.5959 79.6736 24.2663 79.6736 23.6123C79.6787 23.4874 79.6503 23.3633 79.5913 23.253C79.5323 23.1427 79.4448 23.0502 79.3379 22.9849C79.0554 22.8218 78.7311 22.745 78.4053 22.7642C77.638 22.7642 77.2232 23.0522 77.161 23.6282H76.3776C76.3921 23.404 76.4554 23.1855 76.5631 22.9881C76.6707 22.7907 76.8202 22.619 77.0011 22.4851C77.4103 22.2105 77.8967 22.0736 78.3893 22.0943C78.9277 22.0632 79.4609 22.2139 79.9028 22.5223C80.0775 22.6484 80.219 22.8148 80.3151 23.0075C80.4112 23.2001 80.4589 23.4131 80.4543 23.6282C80.4558 23.9013 80.3679 24.1674 80.2038 24.3859C80.0205 24.6252 79.758 24.7919 79.4631 24.8564H79.4445Z" fill="white"/>
<path d="M87.0303 26.3824C87.0442 26.6237 87.0002 26.8649 86.9019 27.0859C86.8037 27.3069 86.654 27.5014 86.4654 27.6531C85.9822 27.9795 85.4037 28.1358 84.8214 28.0971H82.5992V22.1953H84.7069C85.2347 22.164 85.7585 22.3049 86.199 22.5968C86.3713 22.7227 86.5099 22.8889 86.6028 23.0808C86.6957 23.2727 86.7401 23.4844 86.7319 23.6974C86.7371 23.9701 86.658 24.2378 86.5055 24.4642C86.353 24.6906 86.1343 24.8646 85.8792 24.9628C86.2061 25.0272 86.4997 25.2046 86.7083 25.4638C86.917 25.723 87.0272 26.0474 87.0196 26.3797L87.0303 26.3824ZM83.3986 24.6677H84.7148C85.0458 24.6912 85.3767 24.6202 85.6687 24.463C85.7746 24.3828 85.8583 24.277 85.9119 24.1556C85.9655 24.0342 85.9873 23.9012 85.9752 23.7691C85.9809 23.6454 85.9559 23.5222 85.9024 23.4105C85.849 23.2987 85.7687 23.2018 85.6687 23.1285C85.3531 22.9532 84.9921 22.8763 84.6323 22.9078H83.3986V24.6677ZM83.3986 27.3953H84.8214C85.7593 27.3953 86.2256 27.0576 86.2256 26.3824C86.2379 26.2376 86.2148 26.092 86.1581 25.9582C86.1015 25.8244 86.0131 25.7063 85.9006 25.6141C85.6847 25.4493 85.293 25.3669 84.7228 25.3669H83.3906L83.3986 27.3953Z" fill="white"/>
<path d="M91.472 22.0943C91.8511 22.0815 92.2286 22.1495 92.5792 22.294C92.9298 22.4384 93.2454 22.6558 93.505 22.9317C94.0532 23.5362 94.3404 24.3319 94.3044 25.1462C94.3404 25.9606 94.0532 26.7562 93.505 27.3607C92.9624 27.8953 92.2306 28.1951 91.468 28.1951C90.7054 28.1951 89.9736 27.8953 89.431 27.3607C88.8838 26.7556 88.5968 25.9604 88.6316 25.1462C88.5959 24.3319 88.8831 23.5363 89.431 22.9317C89.6926 22.6562 90.0097 22.439 90.3615 22.2947C90.7133 22.1503 91.0918 22.0821 91.472 22.0943ZM91.472 27.5282C91.7453 27.5362 92.0171 27.4842 92.2681 27.3757C92.519 27.2673 92.743 27.1052 92.9242 26.9008C93.3296 26.4088 93.5333 25.7819 93.4944 25.1462C93.5332 24.5114 93.3316 23.8851 92.9295 23.3916C92.7503 23.1876 92.5282 23.0256 92.279 22.9172C92.0298 22.8087 91.7597 22.7565 91.488 22.7642C91.2115 22.7549 90.9363 22.8065 90.6821 22.9154C90.4278 23.0243 90.2008 23.1878 90.0172 23.3943C89.6129 23.8868 89.4102 24.5135 89.4496 25.1489C89.412 25.784 89.6146 26.4101 90.0172 26.9034C90.1977 27.1071 90.4209 27.2689 90.6708 27.3773C90.9208 27.4857 91.1915 27.5381 91.464 27.5308L91.472 27.5282Z" fill="white"/>
<path d="M100.899 27.3953H101.682V29.4715H100.899V28.0971H96.3693V29.4715H95.5886V27.3953H96.1215C96.3603 26.9501 96.5301 26.4715 96.6251 25.9756C96.7896 25.0663 96.8593 24.1425 96.833 23.2188V22.1953H100.888L100.899 27.3953ZM100.113 27.3953V22.8759H97.6296V23.2773C97.6513 24.1509 97.5861 25.0245 97.4351 25.8853C97.3396 26.4077 97.1644 26.9125 96.9156 27.382L100.113 27.3953Z" fill="white"/>
<path d="M107.949 28.0971H107.2V23.3544L104.104 28.0971H103.305V22.1953H104.048V26.9327L107.145 22.1953H107.944L107.949 28.0971Z" fill="white"/>
<path d="M114.267 22.8972H112.308V28.0944H111.522V22.8972H109.583V22.1953H114.267V22.8972Z" fill="white"/>
<path d="M120.304 28.0971H115.905V22.1953H120.169V22.8972H116.681V24.6996H119.942V25.3988H116.681V27.3953H120.304V28.0971Z" fill="white"/>
<path d="M126.699 28.0971H125.913V22.8972H123.31V26.5844C123.31 27.6478 122.924 28.1795 122.151 28.1795C121.959 28.1783 121.767 28.1587 121.578 28.121V27.4351C121.713 27.4698 121.852 27.4859 121.991 27.483C122.073 27.4912 122.155 27.4764 122.228 27.4402C122.302 27.404 122.364 27.3479 122.407 27.2783C122.503 27.0697 122.545 26.8402 122.529 26.611V22.1953H126.699V28.0971Z" fill="white"/>
<path d="M129.59 24.6677H130.906C132.454 24.6677 133.228 25.2393 133.23 26.3824C133.243 26.6229 133.199 26.863 133.1 27.083C133.002 27.303 132.853 27.4966 132.665 27.6478C132.183 27.9738 131.605 28.13 131.024 28.0918H128.807V22.1953H129.59V24.6677ZM129.59 27.3953H131.016C131.952 27.3953 132.419 27.0576 132.417 26.3824C132.43 26.2376 132.406 26.0921 132.35 25.9582C132.293 25.8244 132.205 25.7063 132.092 25.6141C131.876 25.4493 131.485 25.3669 130.914 25.3669H129.582L129.59 27.3953Z" fill="white"/>
<path d="M140.539 22.0943C140.918 22.0815 141.295 22.1495 141.646 22.294C141.996 22.4384 142.312 22.6558 142.572 22.9317C143.119 23.5368 143.406 24.332 143.371 25.1462C143.406 25.9604 143.119 26.7556 142.572 27.3607C142.029 27.8953 141.297 28.1951 140.535 28.1951C139.772 28.1951 139.04 27.8953 138.498 27.3607C137.949 26.7562 137.662 25.9606 137.698 25.1462C137.661 24.3317 137.949 23.5357 138.498 22.9317C138.759 22.6557 139.076 22.4383 139.428 22.294C139.78 22.1496 140.158 22.0815 140.539 22.0943ZM140.539 27.5282C140.812 27.5362 141.084 27.4842 141.335 27.3757C141.586 27.2673 141.81 27.1052 141.991 26.9008C142.394 26.4079 142.597 25.7815 142.558 25.1462C142.597 24.5114 142.396 23.8851 141.993 23.3916C141.815 23.1877 141.593 23.0257 141.344 22.9172C141.096 22.8088 140.826 22.7565 140.555 22.7642C140.279 22.7558 140.004 22.8079 139.75 22.9167C139.497 23.0256 139.27 23.1886 139.086 23.3943C138.682 23.8868 138.479 24.5135 138.519 25.1489C138.481 25.784 138.684 26.4101 139.086 26.9034C139.267 27.1075 139.491 27.2694 139.741 27.3778C139.992 27.4862 140.263 27.5385 140.536 27.5308L140.539 27.5282Z" fill="white"/>
<path d="M150.011 28.0971H148.98L146.88 25.1542L145.964 26.0527V28.0971H145.183V22.1953H145.964V25.1196L148.849 22.1953H149.915L147.44 24.6198L150.011 28.0971Z" fill="white"/>
<path d="M154.045 22.0943C154.424 22.0815 154.801 22.1495 155.152 22.294C155.503 22.4384 155.818 22.6558 156.078 22.9317C156.626 23.5362 156.913 24.3319 156.877 25.1462C156.913 25.9606 156.626 26.7562 156.078 27.3607C155.535 27.8953 154.803 28.1951 154.041 28.1951C153.278 28.1951 152.546 27.8953 152.004 27.3607C151.456 26.7562 151.169 25.9606 151.205 25.1462C151.167 24.3317 151.455 23.5356 152.004 22.9317C152.265 22.6559 152.582 22.4386 152.934 22.2942C153.286 22.1498 153.665 22.0817 154.045 22.0943ZM154.045 27.5282C154.318 27.5362 154.59 27.4842 154.841 27.3757C155.092 27.2673 155.316 27.1052 155.497 26.9008C155.901 26.4079 156.103 25.7815 156.065 25.1462C156.104 24.5117 155.904 23.8854 155.502 23.3916C155.323 23.1878 155.101 23.0259 154.852 22.9174C154.603 22.809 154.333 22.7567 154.061 22.7642C153.784 22.7549 153.509 22.8065 153.255 22.9154C153.001 23.0243 152.774 23.1878 152.59 23.3943C152.184 23.8859 151.98 24.513 152.02 25.1489C151.982 25.7845 152.185 26.4111 152.59 26.9034C152.771 27.1071 152.994 27.2689 153.244 27.3773C153.494 27.4857 153.764 27.5381 154.037 27.5308L154.045 27.5282Z" fill="white"/>
<path d="M163.333 28.0971H162.534V25.319H159.472V28.0971H158.692V22.1953H159.472V24.6198H162.547V22.1953H163.347L163.333 28.0971Z" fill="white"/>
<path d="M69.0396 43.9015H67.1452L63.4709 39.5443H61.4139V43.9015H59.9511V32.9434H63.0259C63.5822 32.9334 64.1382 32.9779 64.6859 33.0763C65.1097 33.1515 65.5156 33.3058 65.8822 33.5309C66.2644 33.7669 66.5828 34.0928 66.8095 34.48C67.0519 34.9216 67.1698 35.4204 67.1505 35.9235C67.1747 36.634 66.964 37.3328 66.551 37.9121C66.1282 38.4593 65.558 38.8752 64.907 39.111L69.0396 43.9015ZM65.6264 36.0272C65.6314 35.7407 65.5732 35.4567 65.4559 35.1951C65.3418 34.9417 65.1568 34.7266 64.923 34.5757C64.6954 34.4276 64.4396 34.3281 64.1716 34.2833C63.8335 34.2196 63.4899 34.1893 63.1458 34.1929H61.4272V38.3294H62.882C63.2892 38.3359 63.6959 38.2966 64.0943 38.2125C64.4212 38.1382 64.7233 37.9807 64.971 37.7552C65.1848 37.5602 65.3515 37.3193 65.4586 37.0507C65.5757 36.7225 65.6308 36.3755 65.6211 36.0272H65.6264Z" fill="white"/>
<path d="M79.687 43.9015H72.4502V32.9434H79.687V34.2381H73.9103V37.2421H79.687V38.5474H73.9103V42.6175H79.687V43.9015Z" fill="white"/>
<path d="M91.7811 32.9434L87.9282 39.0951V43.9015H86.4681V39.2519L82.5886 32.9434H84.1979L87.2008 37.8456L90.2303 32.9434H91.7811Z" fill="white"/>
<path d="M103.673 43.9015H101.866L96.6571 34.0998V43.9015H95.2929V32.9434H97.5577L102.316 41.8917V32.9434H103.681L103.673 43.9015Z" fill="white"/>
<path d="M117.238 43.9015H115.692L114.626 40.847H109.865L108.799 43.9015H107.315L111.312 32.9434H113.241L117.238 43.9015ZM114.165 39.6108L112.239 34.2301L110.31 39.6108H114.165Z" fill="white"/>
<path d="M128.146 43.9015H120.909V32.9434H128.146V34.2381H122.369V37.2421H128.146V38.5474H122.369V42.6175H128.146V43.9015Z" fill="white"/>
<path d="M141.554 43.9015H139.659L135.985 39.5443H133.928V43.9015H132.465V32.9434H135.543C136.099 32.9334 136.655 32.9779 137.203 33.0763C137.626 33.1516 138.031 33.3058 138.396 33.5309C138.78 33.7661 139.099 34.0921 139.326 34.48C139.568 34.9218 139.685 35.4207 139.665 35.9235C139.69 36.6338 139.48 37.3325 139.068 37.9121C138.645 38.4593 138.075 38.8752 137.424 39.111L141.554 43.9015ZM138.138 36.0272C138.144 35.7409 138.086 35.4569 137.97 35.1951C137.856 34.9417 137.671 34.7266 137.437 34.5757C137.209 34.4276 136.952 34.3281 136.683 34.2833C136.346 34.2195 136.003 34.1892 135.66 34.1929H133.941V38.3294H135.415C135.821 38.336 136.227 38.2968 136.624 38.2125C136.947 38.1342 137.244 37.975 137.488 37.7499C137.702 37.5558 137.868 37.3146 137.973 37.0454C138.091 36.7175 138.146 36.3702 138.135 36.0219L138.138 36.0272Z" fill="white"/>
<path d="M152.942 40.7752C152.939 41.2146 152.835 41.6474 152.638 42.0406C152.446 42.4543 152.16 42.8182 151.804 43.104C151.392 43.429 150.926 43.6783 150.427 43.8404C149.816 44.0313 149.177 44.1211 148.537 44.1062C147.821 44.1129 147.106 44.0389 146.406 43.8856C145.745 43.7262 145.1 43.5064 144.479 43.2289V41.4053H144.583C145.156 41.8731 145.808 42.2334 146.51 42.4686C147.167 42.7061 147.86 42.8328 148.559 42.8435C149.465 42.8435 150.157 42.676 150.669 42.3357C150.903 42.196 151.096 41.9975 151.229 41.7601C151.363 41.5227 151.431 41.2546 151.428 40.9826C151.443 40.7903 151.419 40.5969 151.357 40.4142C151.296 40.2315 151.197 40.0631 151.069 39.9192C150.758 39.6531 150.385 39.4701 149.984 39.3875C149.588 39.2832 149.186 39.2015 148.78 39.1429C148.354 39.0791 147.899 38.9985 147.416 38.901C146.443 38.6936 145.721 38.3454 145.247 37.8376C144.767 37.3032 144.516 36.603 144.546 35.8863C144.541 35.4444 144.645 35.008 144.848 34.6154C145.052 34.2228 145.349 33.886 145.713 33.6346C146.573 33.0203 147.614 32.7097 148.671 32.752C149.387 32.7457 150.102 32.8197 150.802 32.9727C151.388 33.097 151.962 33.275 152.516 33.5044V35.227H152.409C151.918 34.8347 151.357 34.5372 150.757 34.3498C150.085 34.1162 149.379 33.9967 148.668 33.9962C148.004 33.9647 147.345 34.1343 146.779 34.4827C146.563 34.6133 146.385 34.7971 146.261 35.0164C146.138 35.2357 146.073 35.4832 146.073 35.7348C146.052 36.1212 146.179 36.501 146.427 36.7982C146.773 37.1156 147.207 37.3229 147.671 37.3937C147.989 37.4628 148.433 37.5479 149.004 37.6436C149.574 37.7393 150.069 37.8429 150.48 37.9466C151.173 38.0958 151.812 38.4346 152.324 38.9249C152.762 39.4312 152.985 40.0886 152.944 40.7566L152.942 40.7752Z" fill="white"/>
</g>
<defs>
<clipPath id="clip0_79_31">
<rect width="163.333" height="50" fill="white"/>
</clipPath>
</defs>
</svg>
