<svg width="180" height="180" viewBox="0 0 180 180" fill="none" xmlns="http://www.w3.org/2000/svg">
<path opacity="0.1" d="M90 0C40.32 0 0 40.32 0 90C0 139.68 40.32 180 90 180C139.68 180 180 139.68 180 90C180 40.32 139.68 0 90 0ZM81 161.37C45.45 156.96 18 126.72 18 90C18 84.42 18.72 79.11 19.89 73.89L63 117V126C63 135.9 71.1 144 81 144V161.37ZM143.1 138.51C140.76 131.22 134.1 126 126 126H117V99C117 94.05 112.95 90 108 90H54V72H72C76.95 72 81 67.95 81 63V45H99C108.9 45 117 36.9 117 27V23.31C143.37 34.02 162 59.85 162 90C162 108.72 154.8 125.73 143.1 138.51Z" fill="white"/>
</svg>
